<svg width="56" height="56" viewBox="0 0 56 56" fill="none" xmlns="http://www.w3.org/2000/svg">
<circle cx="28" cy="28" r="27.5" stroke="#F64A5A"/>
<path d="M23.625 30.1875C23.2789 30.1875 22.9405 30.0849 22.6528 29.8926C22.365 29.7003 22.1407 29.427 22.0082 29.1072C21.8758 28.7874 21.8411 28.4356 21.9086 28.0961C21.9761 27.7566 22.1428 27.4448 22.3876 27.2001C22.6323 26.9553 22.9441 26.7887 23.2836 26.7211C23.6231 26.6536 23.9749 26.6883 24.2947 26.8207C24.6145 26.9532 24.8878 27.1775 25.0801 27.4653C25.2724 27.753 25.375 28.0914 25.375 28.4375C25.375 28.9016 25.1906 29.3468 24.8624 29.6749C24.5342 30.0031 24.0891 30.1875 23.625 30.1875ZM32.375 26.6875C32.0289 26.6875 31.6905 26.7901 31.4028 26.9824C31.115 27.1747 30.8907 27.448 30.7582 27.7678C30.6258 28.0876 30.5911 28.4394 30.6586 28.7789C30.7261 29.1184 30.8928 29.4302 31.1376 29.6749C31.3823 29.9197 31.6941 30.0864 32.0336 30.1539C32.3731 30.2214 32.7249 30.1867 33.0447 30.0543C33.3645 29.9218 33.6378 29.6975 33.8301 29.4098C34.0224 29.122 34.125 28.7836 34.125 28.4375C34.125 27.9734 33.9406 27.5283 33.6124 27.2001C33.2842 26.8719 32.8391 26.6875 32.375 26.6875ZM31.2156 32.4734C30.2211 32.9857 29.1187 33.253 28 33.253C26.8813 33.253 25.7788 32.9857 24.7844 32.4734C24.5805 32.3848 24.3506 32.3771 24.1413 32.4518C23.9319 32.5265 23.7589 32.6781 23.6573 32.8758C23.5556 33.0735 23.5331 33.3024 23.5941 33.5162C23.6551 33.7299 23.7952 33.9124 23.9859 34.0266C25.2272 34.6664 26.6035 35.0002 28 35.0002C29.3965 35.0002 30.7728 34.6664 32.0141 34.0266C32.2048 33.9124 32.3448 33.7299 32.4059 33.5162C32.4669 33.3024 32.4443 33.0735 32.3427 32.8758C32.2411 32.6781 32.0681 32.5265 31.8587 32.4518C31.6494 32.3771 31.4195 32.3848 31.2156 32.4734ZM39.9984 27.9453C40.1639 28.5327 40.2485 29.1398 40.25 29.75C40.25 32.1453 38.9375 34.3875 36.5422 36.0391C34.1469 37.6906 31.2156 38.5 28 38.5C24.7844 38.5 21.7547 37.625 19.4578 36.0391C17.1609 34.4531 15.75 32.1453 15.75 29.75C15.7515 29.1398 15.8361 28.5327 16.0016 27.9453C15.3499 27.3171 14.967 26.4608 14.9332 25.5563C14.8994 24.6518 15.2173 23.7693 15.8203 23.0942C16.4232 22.4191 17.2642 22.0038 18.1668 21.9355C19.0694 21.8673 19.9633 22.1514 20.6609 22.7281C22.575 21.7109 24.8719 21.1203 27.2562 21.0219L28.0109 16.4828C28.0486 16.2558 28.1741 16.0527 28.3604 15.9176C28.5467 15.7825 28.7788 15.7262 29.0062 15.7609L32.2547 16.2641C32.4761 15.8441 32.8082 15.4927 33.215 15.2478C33.6217 15.003 34.0877 14.8741 34.5625 14.875C35.0605 14.8755 35.5481 15.0177 35.9683 15.2849C36.3885 15.5522 36.724 15.9334 36.9357 16.3842C37.1474 16.8349 37.2265 17.3366 37.1638 17.8306C37.1011 18.3246 36.8991 18.7906 36.5815 19.1742C36.2639 19.5578 35.8437 19.8431 35.3701 19.9968C34.8964 20.1505 34.3888 20.1663 33.9064 20.0424C33.4241 19.9185 32.987 19.6599 32.6461 19.2969C32.3052 18.9339 32.0746 18.4814 31.9812 17.9922L29.5969 17.6203L29.0281 21.0328C31.3141 21.1641 33.5016 21.7547 35.3391 22.7281C36.0367 22.1514 36.9306 21.8673 37.8332 21.9355C38.7358 22.0038 39.5768 22.4191 40.1797 23.0942C40.7827 23.7693 41.1006 24.6518 41.0668 25.5563C41.033 26.4608 40.6501 27.3171 39.9984 27.9453ZM33.6875 17.5C33.6875 17.6731 33.7388 17.8422 33.835 17.9861C33.9311 18.13 34.0678 18.2422 34.2276 18.3084C34.3875 18.3746 34.5635 18.392 34.7332 18.3582C34.9029 18.3244 35.0588 18.2411 35.1812 18.1187C35.3036 17.9964 35.3869 17.8404 35.4207 17.6707C35.4544 17.501 35.4371 17.325 35.3709 17.1652C35.3047 17.0053 35.1925 16.8686 35.0486 16.7725C34.9047 16.6763 34.7356 16.625 34.5625 16.625C34.3304 16.625 34.1079 16.7172 33.9438 16.8813C33.7797 17.0454 33.6875 17.2679 33.6875 17.5ZM39.375 25.375C39.3735 25.0068 39.2559 24.6484 39.0389 24.3508C38.8218 24.0533 38.5165 23.8318 38.1663 23.7179C37.8161 23.604 37.4389 23.6035 37.0884 23.7164C36.7379 23.8293 36.4319 24.05 36.2141 24.3469C36.0869 24.5192 35.9016 24.6397 35.6925 24.6859C35.4833 24.7322 35.2645 24.7011 35.0766 24.5984L35.0219 24.5656C33.0969 23.3953 30.6031 22.75 28 22.75C25.4078 22.75 22.9141 23.3953 20.9781 24.5656L20.9344 24.5875C20.7471 24.6968 20.526 24.7327 20.3138 24.6882C20.1017 24.6438 19.9135 24.5221 19.7859 24.3469C19.6334 24.1352 19.4355 23.9604 19.2067 23.8351C18.9779 23.7098 18.7239 23.6373 18.4635 23.6228C18.203 23.6083 17.9426 23.6522 17.7013 23.7514C17.46 23.8505 17.2439 24.0023 17.0688 24.1957C16.8938 24.3891 16.7641 24.6192 16.6895 24.8692C16.6148 25.1191 16.597 25.3826 16.6372 25.6403C16.6775 25.8981 16.7749 26.1436 16.9223 26.3588C17.0697 26.574 17.2633 26.7536 17.4891 26.8844C17.6712 26.9922 17.8075 27.1631 17.8721 27.3647C17.9366 27.5663 17.9248 27.7846 17.8391 27.9781C17.6195 28.5433 17.5046 29.1437 17.5 29.75C17.5 31.5547 18.55 33.2828 20.4531 34.5953C22.3562 35.9078 25.1344 36.75 28 36.75C30.8656 36.75 33.5453 35.9844 35.5469 34.5953C37.5484 33.2063 38.5 31.5547 38.5 29.75C38.497 29.1425 38.3782 28.5411 38.15 27.9781C38.0699 27.7827 38.0623 27.5651 38.1285 27.3646C38.1947 27.1641 38.3303 26.9938 38.5109 26.8844C38.7733 26.7291 38.9909 26.5084 39.1423 26.2438C39.2938 25.9792 39.3739 25.6799 39.375 25.375Z" fill="#F64A5A"/>
</svg>
