<svg width="56" height="56" viewBox="0 0 56 56" fill="none" xmlns="http://www.w3.org/2000/svg">
<circle cx="28" cy="28" r="27.5" stroke="#137BB0"/>
<path fill-rule="evenodd" clip-rule="evenodd" d="M24.9998 24.4638H29.3328V26.6221C29.957 25.3808 31.5576 24.2654 33.9621 24.2654C38.5716 24.2654 39.666 26.7364 39.666 31.2701V39.6666H34.9993V32.3026C34.9993 29.7208 34.3751 28.2648 32.7861 28.2648C30.5823 28.2648 29.6665 29.8339 29.6665 32.3014V39.6666H24.9998V24.4638ZM16.9976 39.4683H21.6643V24.2654H16.9976V39.4683ZM22.3328 19.3083C22.333 19.6994 22.2554 20.0867 22.1046 20.4476C21.9538 20.8085 21.7327 21.1359 21.4543 21.4106C20.8901 21.9713 20.1264 22.2852 19.331 22.2833C18.5369 22.2827 17.775 21.9697 17.21 21.4118C16.9325 21.1361 16.7122 20.8084 16.5617 20.4474C16.4112 20.0865 16.3333 19.6993 16.3326 19.3083C16.3326 18.5184 16.6476 17.7624 17.2111 17.2048C17.7757 16.6461 18.5379 16.3329 19.3321 16.3333C20.1278 16.3333 20.8908 16.6471 21.4543 17.2048C22.0166 17.7624 22.3328 18.5184 22.3328 19.3083Z" fill="#137BB0"/>
</svg>
