<svg width="56" height="56" viewBox="0 0 56 56" fill="none" xmlns="http://www.w3.org/2000/svg">
<circle cx="28" cy="28" r="27.5" stroke="#ED3067"/>
<path d="M27.9997 24.3545C25.9927 24.3545 24.3548 25.9924 24.3548 27.9994C24.3548 30.0065 25.9927 31.6444 27.9997 31.6444C30.0067 31.6444 31.6446 30.0065 31.6446 27.9994C31.6446 25.9924 30.0067 24.3545 27.9997 24.3545ZM38.9317 27.9994C38.9317 26.4901 38.9454 24.9944 38.8606 23.4877C38.7759 21.7377 38.3766 20.1846 37.097 18.9049C35.8145 17.6225 34.2641 17.226 32.5141 17.1412C31.0048 17.0565 29.5091 17.0701 28.0024 17.0701C26.493 17.0701 24.9973 17.0565 23.4907 17.1412C21.7407 17.226 20.1876 17.6252 18.9079 18.9049C17.6255 20.1873 17.229 21.7377 17.1442 23.4877C17.0595 24.9971 17.0731 26.4928 17.0731 27.9994C17.0731 29.5061 17.0595 31.0045 17.1442 32.5112C17.229 34.2612 17.6282 35.8143 18.9079 37.094C20.1903 38.3764 21.7407 38.7729 23.4907 38.8576C25.0001 38.9424 26.4958 38.9287 28.0024 38.9287C29.5118 38.9287 31.0075 38.9424 32.5141 38.8576C34.2641 38.7729 35.8173 38.3737 37.097 37.094C38.3794 35.8116 38.7759 34.2612 38.8606 32.5112C38.9481 31.0045 38.9317 29.5088 38.9317 27.9994ZM27.9997 33.6076C24.8962 33.6076 22.3915 31.103 22.3915 27.9994C22.3915 24.8959 24.8962 22.3912 27.9997 22.3912C31.1032 22.3912 33.6079 24.8959 33.6079 27.9994C33.6079 31.103 31.1032 33.6076 27.9997 33.6076ZM33.8376 23.4713C33.113 23.4713 32.5278 22.8862 32.5278 22.1616C32.5278 21.4369 33.113 20.8518 33.8376 20.8518C34.5622 20.8518 35.1473 21.4369 35.1473 22.1616C35.1476 22.3336 35.1138 22.504 35.0481 22.663C34.9823 22.822 34.8859 22.9665 34.7642 23.0882C34.6425 23.2098 34.4981 23.3063 34.3391 23.3721C34.1801 23.4378 34.0096 23.4715 33.8376 23.4713Z" fill="#EF325E"/>
</svg>
