<svg width="56" height="56" viewBox="0 0 56 56" fill="none" xmlns="http://www.w3.org/2000/svg">
<circle cx="28" cy="28" r="27.5" stroke="#B83E47"/>
<path d="M38.0625 26.2501C38.0625 28.8314 37.1547 31.1939 35.5031 32.9111C33.8516 34.6282 31.8609 35.4376 29.75 35.4376C28.0547 35.4376 26.8187 34.9782 25.9328 34.4204L24.9047 38.7954C24.8379 39.0847 24.675 39.3428 24.4425 39.5276C24.2101 39.7123 23.9219 39.8128 23.625 39.8126C23.5257 39.8125 23.4266 39.8015 23.3297 39.7798C23.1616 39.7411 23.0028 39.6697 22.8623 39.5696C22.7218 39.4695 22.6024 39.3426 22.511 39.1964C22.4196 39.0501 22.3579 38.8872 22.3295 38.7171C22.301 38.5469 22.3064 38.3729 22.3453 38.2048L25.8453 23.3298C25.8841 23.1618 25.9556 23.003 26.0557 22.8626C26.1559 22.7222 26.2827 22.6028 26.4289 22.5114C26.5752 22.42 26.738 22.3583 26.9081 22.3298C27.0782 22.3013 27.2523 22.3066 27.4203 22.3454C27.5884 22.3842 27.7471 22.4557 27.8875 22.5559C28.028 22.656 28.1473 22.7828 28.2387 22.9291C28.3301 23.0753 28.3918 23.2381 28.4203 23.4082C28.4488 23.5783 28.4435 23.7524 28.4047 23.9204L26.6 31.5767C26.9828 32.0361 27.9125 32.8126 29.75 32.8126C32.55 32.8126 35.4375 30.3626 35.4375 26.2501C35.4364 25.0887 35.1634 23.9437 34.6403 22.9067C34.1171 21.8698 33.3584 20.9698 32.4249 20.2788C31.4914 19.5878 30.409 19.1251 29.2645 18.9276C28.12 18.7302 26.9451 18.8035 25.834 19.1417C24.723 19.48 23.7065 20.0737 22.8662 20.8754C22.0258 21.6771 21.3849 22.6644 20.9947 23.7584C20.6046 24.8523 20.476 26.0224 20.6194 27.1749C20.7627 28.3275 21.174 29.4304 21.8203 30.3954C21.9313 30.5377 22.0118 30.7014 22.0567 30.8762C22.1017 31.051 22.11 31.2331 22.0814 31.4113C22.0527 31.5895 21.9876 31.7599 21.8901 31.9117C21.7926 32.0636 21.6649 32.1938 21.5148 32.2941C21.3648 32.3943 21.1957 32.4626 21.0181 32.4946C20.8404 32.5265 20.6581 32.5215 20.4825 32.4799C20.3069 32.4382 20.1418 32.3608 19.9975 32.2524C19.8532 32.1441 19.7328 32.0071 19.6437 31.8501C18.7678 30.5444 18.21 29.0516 18.0151 27.4914C17.8202 25.9312 17.9936 24.3471 18.5215 22.866C19.0493 21.3849 19.9169 20.0482 21.0547 18.9629C22.1924 17.8777 23.5686 17.0742 25.0729 16.6168C26.5772 16.1594 28.1678 16.0609 29.7171 16.3292C31.2663 16.5975 32.7312 17.2251 33.9941 18.1617C35.257 19.0984 36.2828 20.3179 36.9894 21.7225C37.6959 23.1271 38.0634 24.6778 38.0625 26.2501Z" fill="#B83E47"/>
</svg>
