<svg width="15" height="13" viewBox="0 0 15 13" fill="none" xmlns="http://www.w3.org/2000/svg">
<path d="M10.0845 12.4205L10.3112 12.5604L10.4873 12.3604C13.2257 9.2486 14.6526 6.48706 14.6526 4.09002C14.6526 2.9507 14.4157 2.06583 13.8425 1.55222C12.9534 0.744389 11.7687 0.3564 10.3246 0.3564H10.1834L10.0893 0.461592C9.64128 0.962318 9.2178 1.64692 8.81452 2.50331C8.3746 3.38432 8.15131 4.28573 8.15131 5.20456V5.38175L8.30257 5.47405L10.311 6.69955C10.1136 7.66237 9.43924 9.05661 8.23946 10.9024L8.06332 11.1734L8.33838 11.3431L10.0845 12.4205ZM2.83998 12.4205L3.06674 12.5604L3.24275 12.3604C5.98115 9.2486 7.4081 6.48706 7.4081 4.09002C7.4081 2.95071 7.17119 2.06584 6.59799 1.55223C5.70887 0.74439 4.52422 0.3564 3.08006 0.3564H2.93891L2.84479 0.461592C2.39677 0.962322 1.97328 1.64693 1.57001 2.50333C1.13008 3.38433 0.906799 4.28574 0.906799 5.20456V5.38175L1.05806 5.47405L3.06653 6.69955C2.86913 7.66237 2.19473 9.05661 0.994952 10.9024L0.818806 11.1734L1.09387 11.3431L2.83998 12.4205Z" stroke="white" stroke-width="0.631387"/>
</svg>
