<svg width="69" height="61" viewBox="0 0 69 61" fill="none" xmlns="http://www.w3.org/2000/svg">
<path d="M22.2643 2.03162L21.8113 1.75264L21.4595 2.15168C7.92154 17.5082 1.03658 30.9589 1.03658 42.4753C1.03658 48.0419 2.20663 52.0769 4.74575 54.3462C8.94242 58.1536 14.5727 60.0254 21.5647 60.0254H21.8467L22.0349 59.8155C24.1768 57.4258 26.233 54.1204 28.2121 49.9235C30.3379 45.6772 31.4075 41.3535 31.4075 36.9583V36.6036L31.1046 36.4191L20.5955 30.0183C21.4373 25.0285 24.909 17.7866 31.121 8.24682L31.4743 7.70424L30.923 7.36469L22.2643 2.03162ZM58.1889 2.03162L57.736 1.75264L57.3842 2.15168C43.8462 17.5082 36.9612 30.9589 36.9612 42.4753C36.9612 48.0418 38.1312 52.0767 40.6703 54.3461C44.867 58.1536 50.4973 60.0254 57.4894 60.0254H57.7713L57.9595 59.8155C60.1015 57.4258 62.1578 54.1203 64.1369 49.9233C66.2626 45.6771 67.3322 41.3534 67.3322 36.9583V36.6036L67.0293 36.4191L56.5202 30.0183C57.3619 25.0285 60.8337 17.7866 67.0457 8.24682L67.399 7.70424L66.8477 7.36469L58.1889 2.03162Z" stroke="#F0EFEF" stroke-width="1.26277"/>
</svg>
