<svg width="56" height="56" viewBox="0 0 56 56" fill="none" xmlns="http://www.w3.org/2000/svg">
<circle cx="28" cy="28" r="27.5" stroke="#4F4A4A"/>
<path d="M38.7078 31.85L38.7406 31.7406C39.5867 29.3186 39.5867 26.6814 38.7406 24.2594L38.7078 24.15C37.9096 21.9494 36.4542 20.0472 34.5389 18.7012C32.6236 17.3552 30.3409 16.6304 28 16.625C25.6583 16.6273 23.3742 17.3509 21.4583 18.6973C19.5424 20.0437 18.0877 21.9476 17.2922 24.15L17.2594 24.2594C16.4133 26.6814 16.4133 29.3186 17.2594 31.7406L17.2922 31.85C18.0877 34.0524 19.5424 35.9563 21.4583 37.3027C23.3742 38.6491 25.6583 39.3727 28 39.375C30.3417 39.3727 32.6258 38.6491 34.5417 37.3027C36.4576 35.9563 37.9123 34.0524 38.7078 31.85ZM25.2109 32.375H30.7891C30.2286 34.1148 29.2741 35.7019 28 37.0125C26.7259 35.7019 25.7714 34.1148 25.2109 32.375ZM24.7516 30.625C24.4162 28.8911 24.4162 27.1089 24.7516 25.375H31.2484C31.4149 26.2401 31.4992 27.119 31.5 28C31.4997 28.881 31.4155 29.76 31.2484 30.625H24.7516ZM18.375 28C18.3768 27.1128 18.4983 26.2298 18.7359 25.375H22.9687C22.6771 27.1128 22.6771 28.8872 22.9687 30.625H18.7359C18.4983 29.7702 18.3768 28.8872 18.375 28ZM30.7891 23.625H25.2109C25.7714 21.8852 26.7259 20.2981 28 18.9875C29.2741 20.2981 30.2286 21.8852 30.7891 23.625ZM33.0312 25.375H37.264C37.7454 27.0919 37.7454 28.9081 37.264 30.625H33.0312C33.3229 28.8872 33.3229 27.1128 33.0312 25.375ZM36.575 23.625H32.6375C32.1112 21.7824 31.2142 20.0666 30.0016 18.5828C31.4018 18.8852 32.7176 19.4942 33.8542 20.366C34.9909 21.2379 35.9201 22.3509 36.575 23.625ZM25.9984 18.5828C24.7857 20.0666 23.8888 21.7824 23.3625 23.625H19.425C20.0799 22.3509 21.0091 21.2379 22.1457 20.366C23.2824 19.4942 24.5982 18.8852 25.9984 18.5828ZM19.425 32.375H23.3625C23.8888 34.2176 24.7857 35.9334 25.9984 37.4172C24.5973 37.117 23.2805 36.5088 22.1436 35.6367C21.0066 34.7646 20.078 33.6505 19.425 32.375ZM30.0016 37.4172C31.2142 35.9334 32.1112 34.2176 32.6375 32.375H36.575C35.922 33.6505 34.9933 34.7646 33.8564 35.6367C32.7194 36.5088 31.4027 37.117 30.0016 37.4172Z" fill="#4F4A4A"/>
</svg>
