<svg width="56" height="56" viewBox="0 0 56 56" fill="none" xmlns="http://www.w3.org/2000/svg">
<circle cx="28" cy="28" r="27.5" stroke="#395976"/>
<path d="M34.8614 37.7256C34.8468 37.6838 34.8241 37.6452 34.7945 37.6121C34.765 37.5791 34.7291 37.5523 34.6891 37.5331C34.6491 37.514 34.6057 37.503 34.5614 37.5008C34.5171 37.4986 34.4728 37.5051 34.4311 37.5201C33.8049 37.7417 33.1498 37.8653 32.4867 37.8878C32.1158 37.9284 31.7405 37.8838 31.3895 37.7572C31.0385 37.6306 30.7211 37.4255 30.4614 37.1575C30.2018 36.8895 30.0069 36.5658 29.8915 36.2109C29.7761 35.8561 29.7434 35.4795 29.7958 35.1101C29.798 35.0942 29.799 35.0781 29.799 35.0619V26.3676H35.0766C35.1617 26.3676 35.2434 26.3338 35.3036 26.2736C35.3639 26.2134 35.3977 26.1317 35.3977 26.0465V22.4885C35.3977 22.4033 35.3639 22.3217 35.3036 22.2614C35.2434 22.2012 35.1617 22.1674 35.0766 22.1674H29.799V15.3211C29.799 15.236 29.7651 15.1543 29.7049 15.0941C29.6447 15.0338 29.563 15 29.4778 15H25.7111C25.6581 15.0036 25.6085 15.0272 25.5722 15.0659C25.5359 15.1046 25.5155 15.1556 25.5152 15.2087C25.4296 16.8285 24.8851 18.3905 23.9452 19.7125C23.0054 21.0344 21.7089 22.0618 20.2071 22.6748C20.1466 22.6989 20.0946 22.7405 20.0577 22.7942C20.0209 22.848 20.0008 22.9114 20 22.9766V26.0465C20 26.2231 20.1445 26.3676 20.3211 26.3676H22.8002V35.5227C22.8002 38.644 25.109 43.0964 31.1974 42.9984C33.1434 42.9984 35.3013 42.1972 35.958 41.4827C35.9897 41.4457 36.0109 41.4008 36.0193 41.3528C36.0278 41.3048 36.0233 41.2554 36.0062 41.2098L34.8614 37.7272V37.7256Z" fill="#395976"/>
</svg>
