<svg width="56" height="56" viewBox="0 0 56 56" fill="none" xmlns="http://www.w3.org/2000/svg">
<circle cx="28" cy="28" r="27.5" stroke="#FF004F"/>
<g clip-path="url(#clip0_85_204)">
<path d="M34.3178 24.082C36.1212 25.3705 38.3305 26.1286 40.7166 26.1286V21.5395C40.265 21.5396 39.8146 21.4925 39.3728 21.3989V25.0112C36.9869 25.0112 34.7779 24.2532 32.9741 22.9648V32.3299C32.9741 37.0149 29.1742 40.8125 24.4872 40.8125C22.7383 40.8125 21.1128 40.2841 19.7625 39.3777C21.3037 40.9528 23.4529 41.9298 25.8306 41.9298C30.518 41.9298 34.318 38.1322 34.318 33.447V24.082H34.3178ZM35.9756 19.4522C35.0539 18.4458 34.4487 17.1453 34.3178 15.7074V15.1172H33.0444C33.3649 16.9446 34.4584 18.5059 35.9756 19.4522ZM22.727 35.7827C22.2121 35.108 21.9338 34.2824 21.935 33.4336C21.935 31.291 23.6731 29.5536 25.8174 29.5536C26.2169 29.5534 26.6141 29.6147 26.995 29.7354V25.0437C26.5499 24.9827 26.1008 24.9568 25.6518 24.9663V28.6181C25.2707 28.4973 24.8733 28.436 24.4736 28.4364C22.3294 28.4364 20.5914 30.1736 20.5914 32.3165C20.5914 33.8318 21.4601 35.1437 22.727 35.7827Z" fill="#FF004F"/>
<path d="M32.9741 22.9647C34.778 24.2531 36.9868 25.0111 39.3728 25.0111V21.3988C38.0409 21.1153 36.8619 20.4197 35.9755 19.4522C34.4582 18.5058 33.3649 16.9445 33.0444 15.1172H29.6995V33.4469C29.6919 35.5837 27.9569 37.3139 25.8172 37.3139C24.5564 37.3139 23.4362 36.7133 22.7269 35.7826C21.4601 35.1437 20.5913 33.8317 20.5913 32.3166C20.5913 30.1738 22.3293 28.4365 24.4735 28.4365C24.8843 28.4365 25.2803 28.5004 25.6517 28.6182V24.9664C21.047 25.0615 17.3437 28.822 17.3437 33.447C17.3437 35.7557 18.2659 37.8486 19.7626 39.3779C21.1129 40.2841 22.7383 40.8127 24.4873 40.8127C29.1744 40.8127 32.9742 37.0148 32.9742 32.3299V22.9648L32.9741 22.9647Z" fill="black"/>
<path d="M39.3728 21.3988V20.4222C38.1717 20.4241 36.9945 20.0879 35.9755 19.4522C36.8775 20.4391 38.0652 21.1198 39.3728 21.399V21.3988ZM33.0443 15.1171C33.0137 14.9425 32.9903 14.7667 32.974 14.5902V14H28.3555V32.3299C28.3482 34.4666 26.6132 36.1968 24.4734 36.1968C23.8668 36.1977 23.2685 36.0559 22.7268 35.7828C23.4361 36.7133 24.5563 37.3139 25.8171 37.3139C27.9567 37.3139 29.6919 35.5838 29.6994 33.447V15.1172H33.0443V15.1171ZM25.6519 24.9663V23.9266C25.266 23.8738 24.8769 23.8474 24.4874 23.8476C19.7998 23.8476 16 27.6454 16 32.3299C16 35.2669 17.4934 37.8552 19.7627 39.3778C18.266 37.8486 17.3438 35.7555 17.3438 33.4469C17.3438 28.822 21.047 25.0614 25.6519 24.9663Z" fill="#00F2EA"/>
</g>
<defs>
<clipPath id="clip0_85_204">
<rect width="24.7172" height="28" fill="white" transform="translate(16 14)"/>
</clipPath>
</defs>
</svg>
