<svg width="56" height="56" viewBox="0 0 56 56" fill="none" xmlns="http://www.w3.org/2000/svg">
<circle cx="28" cy="28" r="27.5" stroke="#31ABDF"/>
<g clip-path="url(#clip0_85_175)">
<path d="M42 19.6942C41.2203 20.854 40.2637 21.8426 39.1302 22.6602C39.1414 22.8794 39.147 23.1273 39.147 23.4036C39.147 24.9393 38.9231 26.4767 38.4754 28.0161C38.0276 29.5554 37.3436 31.0289 36.4234 32.4364C35.5033 33.8439 34.4072 35.0908 33.1351 36.1772C31.8631 37.2635 30.3341 38.1297 28.548 38.7758C26.762 39.4218 24.8478 39.7448 22.8056 39.7448C19.6183 39.7448 16.6831 38.8844 14 37.1634C14.4762 37.2164 14.9329 37.2429 15.3702 37.2429C18.0329 37.2429 20.4112 36.4228 22.5049 34.7825C21.2634 34.7597 20.1515 34.3775 19.1693 33.6359C18.1871 32.8943 17.5111 31.9467 17.1415 30.7931C17.5069 30.8627 17.8675 30.8975 18.2233 30.8975C18.7356 30.8975 19.2396 30.8307 19.7355 30.6971C18.4105 30.4317 17.3114 29.7718 16.438 28.7174C15.5647 27.6629 15.1281 26.4459 15.1281 25.0663V24.9952C15.9413 25.4455 16.8088 25.685 17.7304 25.7138C16.9455 25.1905 16.3233 24.5082 15.8635 23.6667C15.4038 22.8253 15.1739 21.9148 15.1739 20.9351C15.1739 19.9018 15.4329 18.9396 15.9507 18.0486C17.3915 19.8167 19.1374 21.2298 21.1883 22.288C23.2393 23.3462 25.4395 23.9339 27.7891 24.051C27.6889 23.6334 27.6387 23.1976 27.6385 22.7436C27.6385 21.1583 28.1995 19.8047 29.3215 18.6828C30.4435 17.5609 31.7972 17 33.3824 17C35.0421 17 36.4401 17.6043 37.5764 18.813C38.8746 18.5559 40.0902 18.0907 41.2231 17.4176C40.7866 18.7913 39.9456 19.8509 38.7 20.5966C39.8448 20.4606 40.9448 20.1598 42 19.6942H42Z" fill="#34A9DE"/>
</g>
<defs>
<clipPath id="clip0_85_175">
<rect width="28" height="22.7448" fill="white" transform="translate(14 17)"/>
</clipPath>
</defs>
</svg>
