<svg width="56" height="56" viewBox="0 0 56 56" fill="none" xmlns="http://www.w3.org/2000/svg">
<circle cx="28" cy="28" r="27.5" stroke="#E32329"/>
<g clip-path="url(#clip0_85_167)">
<path d="M36.1475 33.4508H34.7131V32.5902C34.7131 32.1311 34.9426 31.9016 35.4016 31.9016H35.459C35.918 31.9016 36.1475 32.1311 36.1475 32.5902V33.4508ZM30.6967 31.6147C30.2377 31.6147 30.0082 31.806 30.0082 32.1885V36.2623C30.0082 36.6448 30.2377 36.8361 30.6967 36.8361C31.1557 36.8361 31.3852 36.6448 31.3852 36.2623V32.1885C31.3852 31.806 31.1557 31.6147 30.6967 31.6147ZM39.5328 29.3197V37.1229C39.5328 38.0792 39.179 38.8825 38.4713 39.5328C37.7637 40.1831 36.9126 40.5082 35.918 40.5082H21.1148C20.1202 40.5082 19.2691 40.1831 18.5615 39.5328C17.8538 38.8825 17.5 38.0792 17.5 37.1229V29.3197C17.5 28.4016 17.8538 27.6079 18.5615 26.9385C19.2691 26.2691 20.1202 25.9344 21.1148 25.9344H35.918C36.9126 25.9344 37.7637 26.2691 38.4713 26.9385C39.179 27.6079 39.5328 28.4016 39.5328 29.3197ZM22.0902 37.9836V29.7787H23.9262V28.5738L19.0492 28.5164V29.7213H20.541V37.9836H22.0902ZM27.5984 30.9836H26.0492V36.4344C25.9727 36.6257 25.8388 36.75 25.6475 36.8074C25.4563 36.8647 25.3033 36.7596 25.1885 36.4918V35.4016L25.1311 30.9836H23.6393V36.7213C23.7158 37.3716 23.8497 37.7541 24.041 37.8688C24.3852 38.0984 24.8156 38.1079 25.332 37.8975C25.8484 37.6872 26.2022 37.4098 26.3934 37.0656V37.9836H27.5984V30.9836ZM32.4754 36.0328V32.3606C32.4754 31.6339 32.2459 31.1366 31.7869 30.8688C31.3279 30.6011 30.7541 30.735 30.0656 31.2705V28.5738H28.5164V37.9262H29.7787L29.8934 37.2951C30.6967 37.9836 31.3374 38.1749 31.8156 37.8688C32.2937 37.5628 32.5137 36.9508 32.4754 36.0328ZM37.2951 35.5164H36.1475V36.3197C36.1475 36.7404 35.9372 36.9508 35.5164 36.9508H35.2869C34.8661 36.9508 34.6557 36.7404 34.6557 36.3197V34.6557H37.2951V33.6803C37.2951 32.6858 37.276 32.0546 37.2377 31.7869C37.123 31.1749 36.7118 30.7923 36.0041 30.6393C35.2964 30.4863 34.7131 30.582 34.2541 30.9262C33.9481 31.194 33.7377 31.4809 33.623 31.7869C33.5082 32.1694 33.4508 32.6858 33.4508 33.3361V35.5164C33.4508 36.9317 33.9863 37.7541 35.0574 37.9836C35.9754 38.1749 36.6448 37.8688 37.0656 37.0656C37.3333 36.6448 37.4098 36.1284 37.2951 35.5164ZM31.3852 23.6967C31.4617 23.888 31.5956 24.041 31.7869 24.1557C31.9399 24.2705 32.1503 24.3279 32.418 24.3279C32.6475 24.3279 32.8388 24.2705 32.9918 24.1557C33.1448 24.041 33.2787 23.8688 33.3934 23.6393V24.2131H35.1148V16.9262H33.7377V22.6065C33.7377 22.9891 33.5464 23.1803 33.1639 23.1803C32.8197 23.1803 32.6475 22.9891 32.6475 22.6065V16.9262H31.2131V21.8606C31.2131 22.5492 31.2322 22.9699 31.2705 23.1229C31.2705 23.2759 31.3087 23.4672 31.3852 23.6967ZM26.2213 19.6229C26.2213 18.9344 26.2787 18.3798 26.3934 17.959C26.5082 17.6147 26.7186 17.3087 27.0246 17.041C27.3306 16.8115 27.7131 16.6967 28.1721 16.6967C28.5929 16.6967 28.9372 16.7732 29.2049 16.9262C29.4727 17.041 29.6831 17.2322 29.8361 17.5C29.9891 17.6912 30.1038 17.9399 30.1803 18.2459C30.2186 18.4372 30.2377 18.8388 30.2377 19.4508V21.2869C30.2377 22.0519 30.2186 22.5492 30.1803 22.7787C30.1421 23.0464 30.0273 23.3333 29.8361 23.6393C29.7213 23.8306 29.5109 24.041 29.2049 24.2705C28.8989 24.3852 28.5929 24.4426 28.2869 24.4426C27.9044 24.4426 27.5601 24.3852 27.2541 24.2705C26.9863 24.1557 26.776 23.9836 26.623 23.7541C26.4699 23.4481 26.3743 23.1803 26.3361 22.9508C26.2596 22.5683 26.2213 22.0902 26.2213 21.5164V19.6229ZM27.541 22.4918C27.541 22.6831 27.6079 22.8552 27.7418 23.0082C27.8757 23.1612 28.0383 23.2377 28.2295 23.2377C28.6885 23.2377 28.918 22.9891 28.918 22.4918V18.6475C28.918 18.1503 28.6885 17.9016 28.2295 17.9016C27.7705 17.9016 27.541 18.1503 27.541 18.6475V22.4918ZM22.8361 24.4426H24.4426V18.877L26.3361 14.1147H24.6148L23.582 17.6721L22.5492 14.1147H20.8279L22.8361 18.877V24.4426Z" fill="#E32329"/>
</g>
<defs>
<clipPath id="clip0_85_167">
<rect width="22.0328" height="28" fill="white" transform="translate(17.5 14)"/>
</clipPath>
</defs>
</svg>
