<svg width="56" height="56" viewBox="0 0 56 56" fill="none" xmlns="http://www.w3.org/2000/svg">
<circle cx="28" cy="28" r="27.5" stroke="#60D669"/>
<g clip-path="url(#clip0_85_198)">
<path d="M14.5975 27.9404C14.5969 30.3113 15.2164 32.6263 16.3943 34.6668L14.4849 41.6386L21.6196 39.7679C23.593 40.8422 25.804 41.4051 28.0509 41.4052H28.0568C35.474 41.4052 41.5119 35.3696 41.515 27.951C41.5165 24.3562 40.1178 20.9758 37.5765 18.4326C35.0358 15.8897 31.6566 14.4885 28.0562 14.4868C20.6381 14.4868 14.6007 20.5221 14.5976 27.9404" fill="url(#paint0_linear_85_198)"/>
<path d="M14.117 27.9361C14.1163 30.3924 14.758 32.7902 15.9779 34.9037L14 42.1255L21.3906 40.1877C23.4269 41.2979 25.7196 41.8833 28.0526 41.8842H28.0586C35.742 41.8842 41.9967 35.6314 42 27.9473C42.0013 24.2233 40.5523 20.7214 37.9203 18.0871C35.288 15.4532 31.788 14.0015 28.0586 14C20.3739 14 14.1201 20.2519 14.117 27.9361ZM18.5183 34.5398L18.2423 34.1017C17.0823 32.2572 16.47 30.1257 16.4709 27.937C16.4734 21.55 21.6713 16.3537 28.063 16.3537C31.1583 16.3551 34.0672 17.5617 36.2552 19.7509C38.443 21.9404 39.6469 24.8509 39.6461 27.9464C39.6433 34.3334 34.4452 39.5303 28.0586 39.5303H28.054C25.9745 39.5292 23.935 38.9708 22.1563 37.9154L21.733 37.6644L17.3473 38.8142L18.5183 34.5396V34.5398Z" fill="url(#paint1_linear_85_198)"/>
<path d="M24.5742 22.11C24.3132 21.53 24.0385 21.5183 23.7904 21.5081C23.5872 21.4994 23.3548 21.5 23.1227 21.5C22.8904 21.5 22.513 21.5874 22.1939 21.9358C21.8746 22.2844 20.9746 23.1271 20.9746 24.8409C20.9746 26.5548 22.2229 28.211 22.3969 28.4437C22.5712 28.6759 24.8068 32.3054 28.3475 33.7017C31.2901 34.862 31.8889 34.6312 32.5276 34.5731C33.1663 34.5151 34.5886 33.7307 34.8788 32.9172C35.1692 32.1039 35.1692 31.4068 35.0821 31.2611C34.9951 31.1159 34.7628 31.0288 34.4144 30.8546C34.0659 30.6804 32.3533 29.8377 32.0341 29.7214C31.7147 29.6052 31.4825 29.5473 31.2502 29.8961C31.0179 30.2443 30.3508 31.0288 30.1475 31.2611C29.9444 31.4939 29.741 31.5229 29.3928 31.3487C29.0442 31.1739 27.9223 30.8065 26.5914 29.6199C25.5558 28.6966 24.8567 27.5563 24.6535 27.2075C24.4502 26.8593 24.6317 26.6705 24.8064 26.4969C24.9629 26.3408 25.1548 26.0902 25.3292 25.8868C25.5029 25.6834 25.5608 25.5382 25.677 25.3059C25.7932 25.0734 25.7351 24.87 25.6481 24.6957C25.5608 24.5215 24.8839 22.7987 24.5742 22.11Z" fill="white"/>
</g>
<defs>
<linearGradient id="paint0_linear_85_198" x1="1365.99" y1="2729.67" x2="1365.99" y2="14.4868" gradientUnits="userSpaceOnUse">
<stop stop-color="#1FAF38"/>
<stop offset="1" stop-color="#60D669"/>
</linearGradient>
<linearGradient id="paint1_linear_85_198" x1="1414" y1="2826.55" x2="1414" y2="14" gradientUnits="userSpaceOnUse">
<stop stop-color="#F9F9F9"/>
<stop offset="1" stop-color="white"/>
</linearGradient>
<clipPath id="clip0_85_198">
<rect width="28" height="28.2188" fill="white" transform="translate(14 14)"/>
</clipPath>
</defs>
</svg>
